<svg xmlns="http://www.w3.org/2000/svg" width="240" height="320" viewBox="0 0 240 320">
    <defs>
      <linearGradient id="bg" x1="0" y1="0" x2="0" y2="1">
        <stop offset="0" stop-color="#02080d"/>
        <stop offset="1" stop-color="#000203"/>
      </linearGradient>
      <linearGradient id="card" x1="0" y1="0" x2="1" y2="1">
        <stop offset="0" stop-color="#071a28"/>
        <stop offset="0.55" stop-color="#061521"/>
        <stop offset="1" stop-color="#03101a"/>
      </linearGradient>
      <linearGradient id="cardHi" x1="0" y1="0" x2="1" y2="1">
        <stop offset="0" stop-color="#0a2638"/>
        <stop offset="1" stop-color="#04111b"/>
      </linearGradient>
      <linearGradient id="heroWarm" x1="0" y1="0" x2="1" y2="1">
        <stop offset="0" stop-color="#9a4016"/>
        <stop offset="0.45" stop-color="#6d290e"/>
        <stop offset="1" stop-color="#21140f"/>
      </linearGradient>
      <linearGradient id="heroCold" x1="0" y1="0" x2="1" y2="1">
        <stop offset="0" stop-color="#124f86"/>
        <stop offset="0.5" stop-color="#0a345e"/>
        <stop offset="1" stop-color="#071827"/>
      </linearGradient>
      <linearGradient id="riskWarm" x1="0" y1="0" x2="1" y2="0">
        <stop offset="0" stop-color="#44190f"/>
        <stop offset="1" stop-color="#2b120d"/>
      </linearGradient>
      <linearGradient id="riskCold" x1="0" y1="0" x2="1" y2="0">
        <stop offset="0" stop-color="#0d2c4b"/>
        <stop offset="1" stop-color="#081c31"/>
      </linearGradient>
      <filter id="sunGlow" x="-70%" y="-70%" width="240%" height="240%">
        <feGaussianBlur stdDeviation="2.2" result="b"/>
        <feMerge><feMergeNode in="b"/><feMergeNode in="SourceGraphic"/></feMerge>
      </filter>
      <filter id="softGlow" x="-30%" y="-30%" width="160%" height="160%">
        <feGaussianBlur stdDeviation="0.65" result="b"/>
        <feMerge><feMergeNode in="b"/><feMergeNode in="SourceGraphic"/></feMerge>
      </filter>
    </defs><rect width="240" height="320" fill="#000000"/><text x="12" y="21" fill="#ffffff" stroke="#ffffff" stroke-width="0.14" paint-order="stroke fill" opacity="1.0" font-family="Segoe UI,Arial,sans-serif" font-size="18" font-weight="900" text-anchor="start" dominant-baseline="middle">Cronin Farm</text><text x="229" y="22" fill="#dbe7ee" opacity="1.0" font-family="Segoe UI,Arial,sans-serif" font-size="6.6" font-weight="500" text-anchor="end" dominant-baseline="middle">Tue, Sep 8, 2026</text><text x="12" y="38" fill="#9db8ca" stroke="#9db8ca" stroke-width="0.14" paint-order="stroke fill" letter-spacing="1.55" opacity="1.0" font-family="Segoe UI,Arial,sans-serif" font-size="5.2" font-weight="800" text-anchor="start" dominant-baseline="middle">CURRENT CONDITIONS</text><line x1="12" y1="47" x2="228" y2="47" stroke="#173f55" stroke-width=".7"/><defs><linearGradient id="heroCurrent" x1="0" y1="0" x2="0" y2="1"><stop offset="0" stop-color="#dd751d"/><stop offset="1" stop-color="#471e08"/></linearGradient></defs><rect x="10" y="54" width="128" height="151" rx="12" fill="url(#heroCurrent)" stroke="#ffad4b" stroke-width="1"/><circle cx="36" cy="96" r="13" fill="#ffc12b" stroke="#ffdc60" stroke-width="1"/><line x1="14" y1="96" x2="21" y2="96" stroke="#ffc12b" stroke-width="1.5"/><line x1="52" y1="96" x2="59" y2="96" stroke="#ffc12b" stroke-width="1.5"/><line x1="36" y1="74" x2="36" y2="81" stroke="#ffc12b" stroke-width="1.5"/><line x1="36" y1="112" x2="36" y2="119" stroke="#ffc12b" stroke-width="1.5"/><line x1="19" y1="79" x2="24" y2="84" stroke="#ffc12b" stroke-width="1.5"/><line x1="48" y1="108" x2="53" y2="113" stroke="#ffc12b" stroke-width="1.5"/><line x1="19" y1="113" x2="24" y2="108" stroke="#ffc12b" stroke-width="1.5"/><line x1="48" y1="84" x2="53" y2="79" stroke="#ffc12b" stroke-width="1.5"/><text x="101" y="76" fill="#ffffff" stroke="#ffffff" stroke-width="0.14" paint-order="stroke fill" letter-spacing="0.35" opacity="1.0" font-family="Segoe UI,Arial,sans-serif" font-size="9.4" font-weight="800" text-anchor="middle" dominant-baseline="middle">HEAT INDEX</text><text x="55" y="138" fill="#ffffff" stroke="#ffffff" stroke-width="0.14" paint-order="stroke fill" opacity="1.0" font-family="Segoe UI,Arial,sans-serif" font-size="32" font-weight="900" text-anchor="start" dominant-baseline="middle">100</text><circle cx="119" cy="123" r="3" fill="none" stroke="#ffffff" stroke-width="1"/><text x="125" y="142" fill="#ffffff" stroke="#ffffff" stroke-width="0.14" paint-order="stroke fill" opacity="1.0" font-family="Segoe UI,Arial,sans-serif" font-size="16" font-weight="800" text-anchor="start" dominant-baseline="middle">F</text><rect x="18" y="170" width="112" height="24" rx="12" fill="#582307" stroke="#ffc06e" stroke-width="1"/><text x="74" y="182" fill="#ffc06e" stroke="#ffc06e" stroke-width="0.14" paint-order="stroke fill" opacity="1.0" font-family="Segoe UI,Arial,sans-serif" font-size="7.2" font-weight="900" text-anchor="middle" dominant-baseline="middle">EXTREME CAUTION</text><rect x="143" y="54" width="87" height="34" rx="6" fill="#041622" stroke="#174e6c" stroke-width="1"/><g transform="translate(148 64.4) scale(0.66)"><rect x="8" y="1" width="5" height="12" rx="2.5" fill="none" stroke="#ff5c4b" stroke-width="2"/><rect x="9.5" y="5" width="2" height="9" fill="#ff5c4b"/><circle cx="10.5" cy="15" r="5" fill="#ff654e"/><circle cx="10.5" cy="15" r="2" fill="#ff9b66"/></g><text x="168" y="63" fill="#72caff" letter-spacing="0.35" opacity="1.0" font-family="Segoe UI,Arial,sans-serif" font-size="5.5" font-weight="700" text-anchor="start" dominant-baseline="middle">TEMP</text><text x="168" y="75" fill="#ffffff" stroke="#ffffff" stroke-width="0.14" paint-order="stroke fill" opacity="1.0" font-family="Segoe UI,Arial,sans-serif" font-size="10.2" font-weight="900" text-anchor="start" dominant-baseline="middle">88.2°F</text><rect x="143" y="91" width="87" height="34" rx="6" fill="#041622" stroke="#174e6c" stroke-width="1"/><g transform="translate(148 101.4) scale(0.66)"><path d="M10 1 C8 5 4 9 4 13a6 6 0 0 0 12 0c0-4-4-8-6-12z" fill="#48baff" stroke="#83d7ff" stroke-width=".7"/></g><text x="168" y="100" fill="#72caff" letter-spacing="0.35" opacity="1.0" font-family="Segoe UI,Arial,sans-serif" font-size="5.4" font-weight="700" text-anchor="start" dominant-baseline="middle">HUMIDITY</text><text x="168" y="112" fill="#ffffff" stroke="#ffffff" stroke-width="0.14" paint-order="stroke fill" opacity="1.0" font-family="Segoe UI,Arial,sans-serif" font-size="10.2" font-weight="900" text-anchor="start" dominant-baseline="middle">68%</text><rect x="143" y="128" width="87" height="34" rx="6" fill="#041622" stroke="#174e6c" stroke-width="1"/><g transform="translate(148 138.4) scale(0.66)"><ellipse cx="10" cy="10" rx="7" ry="5" fill="#7bdc47" transform="rotate(-35 10 10)"/><path d="M4 16L16 4" stroke="#b6ff83" stroke-width="1.3"/></g><text x="168" y="137" fill="#72caff" letter-spacing="0.35" opacity="1.0" font-family="Segoe UI,Arial,sans-serif" font-size="5.4" font-weight="700" text-anchor="start" dominant-baseline="middle">DEW POINT</text><text x="168" y="149" fill="#ffffff" stroke="#ffffff" stroke-width="0.14" paint-order="stroke fill" opacity="1.0" font-family="Segoe UI,Arial,sans-serif" font-size="10.0" font-weight="900" text-anchor="start" dominant-baseline="middle">80.3°F</text><rect x="143" y="165" width="87" height="40" rx="6" fill="#041622" stroke="#174e6c" stroke-width="1"/><g transform="translate(148 178.6) scale(0.64)"><path d="M2 17V3M2 17H18M4 14L8 10L11 12L17 5" fill="none" stroke="#4bc3ff" stroke-width="2"/><path d="M17 5l-3 0 3-3 3 3-3 0z" fill="#4bc3ff"/></g><text x="168" y="174" fill="#72caff" letter-spacing="0.35" opacity="1.0" font-family="Segoe UI,Arial,sans-serif" font-size="5.0" font-weight="700" text-anchor="start" dominant-baseline="middle">FROM YDAY</text><text x="168" y="186" fill="#ffffff" stroke="#ffffff" stroke-width="0.14" paint-order="stroke fill" opacity="1.0" font-family="Segoe UI,Arial,sans-serif" font-size="9.7" font-weight="900" text-anchor="start" dominant-baseline="middle">+6.3°F</text><rect x="10" y="210" width="62" height="52" rx="8" fill="#071d2c" stroke="#174e6c" stroke-width="1"/><rect x="76" y="210" width="62" height="52" rx="8" fill="#071d2c" stroke="#174e6c" stroke-width="1"/><rect x="143" y="210" width="87" height="52" rx="8" fill="#071d2c" stroke="#174e6c" stroke-width="1"/><g transform="translate(16 228) scale(0.78)"><path d="M2 6h13l-3-2m3 2-3 2M1 10h17l-3-2m3 2-3 2M4 14h13l-3-2m3 2-3 2" fill="none" stroke="#4bc3ff" stroke-width="2"/></g><text x="41" y="218" fill="#9dc8e4" letter-spacing="0.4" opacity="1.0" font-family="Segoe UI,Arial,sans-serif" font-size="5.5" font-weight="700" text-anchor="middle" dominant-baseline="middle">WIND</text><text x="51" y="234" fill="#ffffff" stroke="#ffffff" stroke-width="0.14" paint-order="stroke fill" opacity="1.0" font-family="Segoe UI,Arial,sans-serif" font-size="11.5" font-weight="900" text-anchor="middle" dominant-baseline="middle">0.0</text><text x="51" y="246" fill="#b3c7d4" opacity="1.0" font-family="Segoe UI,Arial,sans-serif" font-size="5.6" font-weight="700" text-anchor="middle" dominant-baseline="middle">mph</text><text x="41" y="253" fill="#a6d1ea" opacity="1.0" font-family="Segoe UI,Arial,sans-serif" font-size="4.6" font-weight="700" text-anchor="middle" dominant-baseline="middle">GUST  2.2</text><text x="41" y="260" fill="#a6d1ea" opacity="1.0" font-family="Segoe UI,Arial,sans-serif" font-size="4.6" font-weight="700" text-anchor="middle" dominant-baseline="middle">MAX   8.1</text><g transform="translate(82 227) scale(0.8)"><circle cx="10" cy="10" r="8.5" fill="#071a27" stroke="#4bc3ff" stroke-width="1.8"/><path d="M10 3L7 12l3-2 3 5z" fill="#dff7ff"/><circle cx="10" cy="10" r="2" fill="#188abd"/></g><text x="107" y="218" fill="#9dc8e4" letter-spacing="0.35" opacity="1.0" font-family="Segoe UI,Arial,sans-serif" font-size="5.2" font-weight="700" text-anchor="middle" dominant-baseline="middle">DIRECTION</text><text x="117" y="236" fill="#ffffff" stroke="#ffffff" stroke-width="0.14" paint-order="stroke fill" opacity="1.0" font-family="Segoe UI,Arial,sans-serif" font-size="12.2" font-weight="900" text-anchor="middle" dominant-baseline="middle">196°</text><text x="107" y="254" fill="#9dc8e4" stroke="#9dc8e4" stroke-width="0.14" paint-order="stroke fill" opacity="1.0" font-family="Segoe UI,Arial,sans-serif" font-size="6.2" font-weight="800" text-anchor="middle" dominant-baseline="middle">SSW</text><g transform="translate(150 228) scale(0.8)"><g><circle cx="10" cy="10" r="5.4" fill="#ffbf2c" stroke="#ffda60" stroke-width=".8"/><g stroke="#ffc33b" stroke-width="2"><path d="M10 0v3M10 17v3M0 10h3M17 10h3M3 3l2 2M15 15l2 2M3 17l2-2M15 5l2-2"/></g></g></g><text x="188" y="217" fill="#9dc8e4" letter-spacing="0.35" opacity="1.0" font-family="Segoe UI,Arial,sans-serif" font-size="5.3" font-weight="700" text-anchor="middle" dominant-baseline="middle">TODAY</text><text x="188" y="228" fill="#9db6c6" opacity="1.0" font-family="Segoe UI,Arial,sans-serif" font-size="4.6" font-weight="650" text-anchor="middle" dominant-baseline="middle">HIGH / LOW F</text><text x="194" y="248" fill="#ffffff" stroke="#ffffff" stroke-width="0.14" paint-order="stroke fill" opacity="1.0" font-family="Segoe UI,Arial,sans-serif" font-size="10.4" font-weight="900" text-anchor="middle" dominant-baseline="middle">100° / 73°</text><rect x="10" y="272" width="220" height="36" rx="9" fill="#071d2c" stroke="#174e6c" stroke-width="1"/><circle cx="24" cy="290" r="7" fill="none" stroke="#a8c6d8" stroke-width="1.5"/><line x1="24" y1="286" x2="24" y2="290" stroke="#a8c6d8" stroke-width="1.5"/><line x1="24" y1="290" x2="27" y2="292" stroke="#a8c6d8" stroke-width="1.5"/><text x="45" y="290" fill="#ffffff" opacity="1.0" font-family="Segoe UI,Arial,sans-serif" font-size="7.2" font-weight="650" text-anchor="start" dominant-baseline="middle">Updated 8:29 PM</text><line x1="169" y1="280" x2="169" y2="300" stroke="#557385" stroke-width=".8"/><circle cx="190" cy="290" r="3" fill="#75ed4f"/><text x="221" y="290" fill="#75ed4f" stroke="#75ed4f" stroke-width="0.14" paint-order="stroke fill" opacity="1.0" font-family="Segoe UI,Arial,sans-serif" font-size="7.2" font-weight="900" text-anchor="end" dominant-baseline="middle">ONLINE</text></svg>